<svg width="360" height="600" viewBox="0 0 360 600" fill="none" xmlns="http://www.w3.org/2000/svg">
<g clip-path="url(#clip0_1071_339566)">
<rect width="360" height="600" fill="#0B1821"/>
<g opacity="0.4">
<g opacity="0.5" filter="url(#filter0_f_1071_339566)">
<circle r="429.624" transform="matrix(-0.957182 -0.289488 -0.289488 0.957182 178.541 -339.4)" fill="#00FFFF"/>
</g>
<g opacity="0.5" filter="url(#filter1_f_1071_339566)">
<ellipse rx="214.812" ry="429.624" transform="matrix(-0.957182 -0.289488 -0.289488 0.957182 -102.015 -153.797)" fill="#0038FF"/>
</g>
</g>
<path d="M154.904 229.192H204.096V207.055H164.743C159.309 207.055 154.904 211.46 154.904 216.894V229.192Z" fill="#00FFFF"/>
<path d="M204.096 180H154.904V202.136H194.258C199.691 202.136 204.096 197.731 204.096 192.298V180Z" fill="#00FFFF"/>
<path d="M162.7 266.145H162.646L162.659 266.197C163.623 270.11 166.687 272.321 170.653 272.321C172.989 272.321 174.6 271.797 175.8 270.8C176.938 269.854 178.542 269.37 179.758 270.177L183.793 272.855C182.642 274.529 181.117 276.103 178.981 277.262C176.831 278.428 174.06 279.174 170.428 279.174C165.615 279.174 161.65 277.5 158.888 274.724C156.125 271.947 154.564 268.067 154.564 263.649C154.564 255.042 161.371 248.124 169.864 248.124C179.427 248.124 185.107 255.604 185.107 263.029C185.107 264.304 185.053 265.414 184.944 266.145H162.7ZM162.546 260.707L162.535 260.758H162.587H177.309H177.361L177.351 260.707C176.955 258.754 176.105 257.166 174.87 256.066C173.634 254.966 172.017 254.356 170.089 254.356C168.163 254.356 166.489 254.923 165.19 256.002C163.891 257.08 162.971 258.669 162.546 260.707ZM211.501 252.396L211.576 252.48V252.368V252.143C211.576 250.297 213.072 248.8 214.918 248.8H219.218V278.441H211.576V275.212V275.096L211.501 275.185C209.366 277.713 206.276 279.174 202.396 279.174C193.848 279.174 187.66 272.484 187.66 263.649C187.66 259.203 189.207 255.449 191.822 252.807C194.436 250.164 198.119 248.631 202.396 248.631C206.277 248.631 209.367 249.981 211.501 252.396ZM145.823 261.131L145.752 261.204H145.854H151.307V266.037H140.879H140.861L140.849 266.05L135.24 271.725L135.168 271.797H135.27H148.07C148.924 271.797 149.701 272.128 150.28 272.669C150.912 273.259 151.307 274.101 151.307 275.034L151.307 278.271H126.043V276.21C126.043 274.987 126.25 273.785 126.646 272.652C126.681 272.551 126.717 272.451 126.755 272.351C127.285 270.966 128.1 269.691 129.162 268.616L131.639 266.11L131.711 266.037H131.609H126.042V261.204H136.584H136.602L136.614 261.191L142.11 255.631L142.181 255.559H142.08H129.279C128.425 255.559 127.648 255.228 127.07 254.687C126.438 254.096 126.043 253.255 126.043 252.322L126.042 249.085H151.307V251.146C151.307 252.369 151.099 253.571 150.704 254.704C150.669 254.805 150.632 254.905 150.594 255.005C150.064 256.39 149.25 257.665 148.187 258.74L145.823 261.131ZM229.784 278.441H224.694V237.294H232.958V275.268C232.958 277.02 231.537 278.441 229.784 278.441ZM195.867 263.649C195.867 268.408 199.098 271.87 203.58 271.87C205.875 271.87 207.805 271.034 209.16 269.586C210.515 268.139 211.294 266.084 211.294 263.649C211.294 261.214 210.515 259.145 209.16 257.683C207.805 256.222 205.876 255.371 203.58 255.371C199.098 255.371 195.867 258.891 195.867 263.649Z" fill="#00FFFF" stroke="#00FFFF" stroke-width="0.0849285"/>
</g>
<defs>
<filter id="filter0_f_1071_339566" x="-451.197" y="-969.138" width="1259.48" height="1259.48" filterUnits="userSpaceOnUse" color-interpolation-filters="sRGB">
<feFlood flood-opacity="0" result="BackgroundImageFix"/>
<feBlend mode="normal" in="SourceGraphic" in2="BackgroundImageFix" result="shape"/>
<feGaussianBlur stdDeviation="100" result="effect1_foregroundBlur_1071_339566"/>
</filter>
<filter id="filter1_f_1071_339566" x="-542.354" y="-769.758" width="880.678" height="1231.92" filterUnits="userSpaceOnUse" color-interpolation-filters="sRGB">
<feFlood flood-opacity="0" result="BackgroundImageFix"/>
<feBlend mode="normal" in="SourceGraphic" in2="BackgroundImageFix" result="shape"/>
<feGaussianBlur stdDeviation="100" result="effect1_foregroundBlur_1071_339566"/>
</filter>
<clipPath id="clip0_1071_339566">
<rect width="360" height="600" fill="white"/>
</clipPath>
</defs>
</svg>
